<?xml version="1.0" encoding="UTF-8" standalone="no"?><svg xmlns="http://www.w3.org/2000/svg" xmlns:xlink="http://www.w3.org/1999/xlink" contentScriptType="application/ecmascript" contentStyleType="text/css" height="797px" preserveAspectRatio="none" style="width:570px;height:797px;background:#FFFFFF;" version="1.1" viewBox="0 0 570 797" width="570px" zoomAndPan="magnify"><defs><filter height="300%" id="f1hi1lgrjvob5c" width="300%" x="-1" y="-1"><feGaussianBlur result="blurOut" stdDeviation="2.0"/><feColorMatrix in="blurOut" result="blurOut2" type="matrix" values="0 0 0 0 0 0 0 0 0 0 0 0 0 0 0 0 0 0 .4 0"/><feOffset dx="4.0" dy="4.0" in="blurOut2" result="blurOut3"/><feBlend in="SourceGraphic" in2="blurOut3" mode="normal"/></filter></defs><g><text fill="#000000" font-family="sans-serif" font-size="18" lengthAdjust="spacing" textLength="277" x="140" y="16.708">Relationships - Class Diagram</text><!--MD5=[02e4b9b7573f1156f41e60aa5b4e25a4]
class Company--><rect codeLine="3" fill="#FEFECE" filter="url(#f1hi1lgrjvob5c)" height="48" id="Company" style="stroke:#A80036;stroke-width:1.5;" width="88" x="192" y="98.4531"/><ellipse cx="207" cy="114.4531" fill="#ADD1B2" rx="11" ry="11" style="stroke:#A80036;stroke-width:1.0;"/><path d="M209.3438,110.125 C208.4063,109.6875 207.8125,109.5469 206.9375,109.5469 C204.3125,109.5469 202.3125,111.625 202.3125,114.3438 L202.3125,115.4688 C202.3125,118.0469 204.4219,119.9375 207.3125,119.9375 C208.5313,119.9375 209.6875,119.6406 210.4375,119.0938 C211.0156,118.6875 211.3438,118.2344 211.3438,117.8438 C211.3438,117.3906 210.9531,117 210.4844,117 C210.2656,117 210.0625,117.0781 209.875,117.2656 C209.4219,117.75 209.4219,117.75 209.2344,117.8438 C208.8125,118.1094 208.125,118.2344 207.3594,118.2344 C205.3125,118.2344 204.0156,117.1406 204.0156,115.4375 L204.0156,114.3438 C204.0156,112.5625 205.2656,111.25 207,111.25 C207.5781,111.25 208.1875,111.4063 208.6563,111.6563 C209.1406,111.9375 209.3125,112.1563 209.4063,112.5625 C209.4688,112.9688 209.5,113.0938 209.6406,113.2188 C209.7813,113.3594 210.0156,113.4688 210.2344,113.4688 C210.5,113.4688 210.7656,113.3281 210.9375,113.1094 C211.0469,112.9531 211.0781,112.7656 211.0781,112.3438 L211.0781,110.9219 C211.0781,110.4844 211.0625,110.3594 210.9688,110.2031 C210.8125,109.9375 210.5313,109.7969 210.2344,109.7969 C209.9375,109.7969 209.7344,109.8906 209.5156,110.2031 L209.3438,110.125 Z " fill="#000000"/><text fill="#000000" font-family="sans-serif" font-size="12" lengthAdjust="spacing" textLength="56" x="221" y="118.6074">Company</text><line style="stroke:#A80036;stroke-width:1.5;" x1="193" x2="279" y1="130.4531" y2="130.4531"/><line style="stroke:#A80036;stroke-width:1.5;" x1="193" x2="279" y1="138.4531" y2="138.4531"/><!--MD5=[e9a58730c562b34349daa605d1ed6662]
class Container--><rect codeLine="5" fill="#FEFECE" filter="url(#f1hi1lgrjvob5c)" height="137.6328" id="Container" style="stroke:#A80036;stroke-width:1.5;" width="116" x="378" y="645.9531"/><ellipse cx="405.15" cy="661.9531" fill="#ADD1B2" rx="11" ry="11" style="stroke:#A80036;stroke-width:1.0;"/><path d="M407.4938,657.625 C406.5563,657.1875 405.9625,657.0469 405.0875,657.0469 C402.4625,657.0469 400.4625,659.125 400.4625,661.8438 L400.4625,662.9688 C400.4625,665.5469 402.5719,667.4375 405.4625,667.4375 C406.6813,667.4375 407.8375,667.1406 408.5875,666.5938 C409.1656,666.1875 409.4938,665.7344 409.4938,665.3438 C409.4938,664.8906 409.1031,664.5 408.6344,664.5 C408.4156,664.5 408.2125,664.5781 408.025,664.7656 C407.5719,665.25 407.5719,665.25 407.3844,665.3438 C406.9625,665.6094 406.275,665.7344 405.5094,665.7344 C403.4625,665.7344 402.1656,664.6406 402.1656,662.9375 L402.1656,661.8438 C402.1656,660.0625 403.4156,658.75 405.15,658.75 C405.7281,658.75 406.3375,658.9063 406.8063,659.1563 C407.2906,659.4375 407.4625,659.6563 407.5563,660.0625 C407.6188,660.4688 407.65,660.5938 407.7906,660.7188 C407.9313,660.8594 408.1656,660.9688 408.3844,660.9688 C408.65,660.9688 408.9156,660.8281 409.0875,660.6094 C409.1969,660.4531 409.2281,660.2656 409.2281,659.8438 L409.2281,658.4219 C409.2281,657.9844 409.2125,657.8594 409.1188,657.7031 C408.9625,657.4375 408.6813,657.2969 408.3844,657.2969 C408.0875,657.2969 407.8844,657.3906 407.6656,657.7031 L407.4938,657.625 Z " fill="#000000"/><text fill="#000000" font-family="sans-serif" font-size="12" lengthAdjust="spacing" textLength="57" x="421.85" y="666.1074">Container</text><line style="stroke:#A80036;stroke-width:1.5;" x1="379" x2="493" y1="677.9531" y2="677.9531"/><text fill="#000000" font-family="sans-serif" font-size="11" lengthAdjust="spacing" textLength="31" x="384" y="692.1636">int id;</text><text fill="#000000" font-family="sans-serif" font-size="11" lengthAdjust="spacing" textLength="77" x="384" y="704.9683">float payload;</text><text fill="#000000" font-family="sans-serif" font-size="11" lengthAdjust="spacing" textLength="55" x="384" y="717.7729">float tare;</text><text fill="#000000" font-family="sans-serif" font-size="11" lengthAdjust="spacing" textLength="62" x="384" y="730.5776">float gross;</text><text fill="#000000" font-family="sans-serif" font-size="11" lengthAdjust="spacing" textLength="88" x="384" y="743.3823">string iso_code;</text><text fill="#000000" font-family="sans-serif" font-size="11" lengthAdjust="spacing" textLength="89" x="384" y="756.187">int refrigerated;</text><text fill="#000000" font-family="sans-serif" font-size="11" lengthAdjust="spacing" textLength="104" x="384" y="768.9917">float temperature;</text><line style="stroke:#A80036;stroke-width:1.5;" x1="379" x2="493" y1="775.5859" y2="775.5859"/><!--MD5=[0baaf300b4e708ac3e376d44e9cdca27]
class Cargo_Manifest--><rect codeLine="15" fill="#FEFECE" filter="url(#f1hi1lgrjvob5c)" height="86.4141" id="Cargo_Manifest" style="stroke:#A80036;stroke-width:1.5;" width="124" x="226" y="482.9531"/><ellipse cx="241" cy="498.9531" fill="#ADD1B2" rx="11" ry="11" style="stroke:#A80036;stroke-width:1.0;"/><path d="M243.3438,494.625 C242.4063,494.1875 241.8125,494.0469 240.9375,494.0469 C238.3125,494.0469 236.3125,496.125 236.3125,498.8438 L236.3125,499.9688 C236.3125,502.5469 238.4219,504.4375 241.3125,504.4375 C242.5313,504.4375 243.6875,504.1406 244.4375,503.5938 C245.0156,503.1875 245.3438,502.7344 245.3438,502.3438 C245.3438,501.8906 244.9531,501.5 244.4844,501.5 C244.2656,501.5 244.0625,501.5781 243.875,501.7656 C243.4219,502.25 243.4219,502.25 243.2344,502.3438 C242.8125,502.6094 242.125,502.7344 241.3594,502.7344 C239.3125,502.7344 238.0156,501.6406 238.0156,499.9375 L238.0156,498.8438 C238.0156,497.0625 239.2656,495.75 241,495.75 C241.5781,495.75 242.1875,495.9063 242.6563,496.1563 C243.1406,496.4375 243.3125,496.6563 243.4063,497.0625 C243.4688,497.4688 243.5,497.5938 243.6406,497.7188 C243.7813,497.8594 244.0156,497.9688 244.2344,497.9688 C244.5,497.9688 244.7656,497.8281 244.9375,497.6094 C245.0469,497.4531 245.0781,497.2656 245.0781,496.8438 L245.0781,495.4219 C245.0781,494.9844 245.0625,494.8594 244.9688,494.7031 C244.8125,494.4375 244.5313,494.2969 244.2344,494.2969 C243.9375,494.2969 243.7344,494.3906 243.5156,494.7031 L243.3438,494.625 Z " fill="#000000"/><text fill="#000000" font-family="sans-serif" font-size="12" lengthAdjust="spacing" textLength="92" x="255" y="503.1074">Cargo_Manifest</text><line style="stroke:#A80036;stroke-width:1.5;" x1="227" x2="349" y1="514.9531" y2="514.9531"/><text fill="#000000" font-family="sans-serif" font-size="11" lengthAdjust="spacing" textLength="31" x="232" y="529.1636">int id;</text><text fill="#000000" font-family="sans-serif" font-size="11" lengthAdjust="spacing" textLength="106" x="232" y="541.9683">float gross_weight;</text><text fill="#000000" font-family="sans-serif" font-size="11" lengthAdjust="spacing" textLength="100" x="232" y="554.7729">int pos_container;</text><line style="stroke:#A80036;stroke-width:1.5;" x1="227" x2="349" y1="561.3672" y2="561.3672"/><!--MD5=[0dc7f2ddb409b58bcf52b12238c25399]
class Ship--><rect codeLine="21" fill="#FEFECE" filter="url(#f1hi1lgrjvob5c)" height="188.8516" id="Ship" style="stroke:#A80036;stroke-width:1.5;" width="152" x="348" y="27.9531"/><ellipse cx="406.75" cy="43.9531" fill="#ADD1B2" rx="11" ry="11" style="stroke:#A80036;stroke-width:1.0;"/><path d="M409.0938,39.625 C408.1563,39.1875 407.5625,39.0469 406.6875,39.0469 C404.0625,39.0469 402.0625,41.125 402.0625,43.8438 L402.0625,44.9688 C402.0625,47.5469 404.1719,49.4375 407.0625,49.4375 C408.2813,49.4375 409.4375,49.1406 410.1875,48.5938 C410.7656,48.1875 411.0938,47.7344 411.0938,47.3438 C411.0938,46.8906 410.7031,46.5 410.2344,46.5 C410.0156,46.5 409.8125,46.5781 409.625,46.7656 C409.1719,47.25 409.1719,47.25 408.9844,47.3438 C408.5625,47.6094 407.875,47.7344 407.1094,47.7344 C405.0625,47.7344 403.7656,46.6406 403.7656,44.9375 L403.7656,43.8438 C403.7656,42.0625 405.0156,40.75 406.75,40.75 C407.3281,40.75 407.9375,40.9063 408.4063,41.1563 C408.8906,41.4375 409.0625,41.6563 409.1563,42.0625 C409.2188,42.4688 409.25,42.5938 409.3906,42.7188 C409.5313,42.8594 409.7656,42.9688 409.9844,42.9688 C410.25,42.9688 410.5156,42.8281 410.6875,42.6094 C410.7969,42.4531 410.8281,42.2656 410.8281,41.8438 L410.8281,40.4219 C410.8281,39.9844 410.8125,39.8594 410.7188,39.7031 C410.5625,39.4375 410.2813,39.2969 409.9844,39.2969 C409.6875,39.2969 409.4844,39.3906 409.2656,39.7031 L409.0938,39.625 Z " fill="#000000"/><text fill="#000000" font-family="sans-serif" font-size="12" lengthAdjust="spacing" textLength="26" x="427.25" y="48.1074">Ship</text><line style="stroke:#A80036;stroke-width:1.5;" x1="349" x2="499" y1="59.9531" y2="59.9531"/><text fill="#000000" font-family="sans-serif" font-size="11" lengthAdjust="spacing" textLength="50" x="354" y="74.1636">int MMSI;</text><text fill="#000000" font-family="sans-serif" font-size="11" lengthAdjust="spacing" textLength="71" x="354" y="86.9683">string name;</text><text fill="#000000" font-family="sans-serif" font-size="11" lengthAdjust="spacing" textLength="60" x="354" y="99.7729">int id_ship;</text><text fill="#000000" font-family="sans-serif" font-size="11" lengthAdjust="spacing" textLength="140" x="354" y="112.5776">int number_energy_gen;</text><text fill="#000000" font-family="sans-serif" font-size="11" lengthAdjust="spacing" textLength="140" x="354" y="125.3823">fload gen_power_output;</text><text fill="#000000" font-family="sans-serif" font-size="11" lengthAdjust="spacing" textLength="63" x="354" y="138.187">int callsign;</text><text fill="#000000" font-family="sans-serif" font-size="11" lengthAdjust="spacing" textLength="76" x="354" y="150.9917">int ship_type;</text><text fill="#000000" font-family="sans-serif" font-size="11" lengthAdjust="spacing" textLength="68" x="354" y="163.7964">float length;</text><text fill="#000000" font-family="sans-serif" font-size="11" lengthAdjust="spacing" textLength="62" x="354" y="176.6011">float width;</text><text fill="#000000" font-family="sans-serif" font-size="11" lengthAdjust="spacing" textLength="79" x="354" y="189.4058">float capacity;</text><text fill="#000000" font-family="sans-serif" font-size="11" lengthAdjust="spacing" textLength="58" x="354" y="202.2104">float draft;</text><line style="stroke:#A80036;stroke-width:1.5;" x1="349" x2="499" y1="208.8047" y2="208.8047"/><!--MD5=[f2ba7f6ab60af8dd0d3e354f91729b14]
class Truck--><rect codeLine="35" fill="#FEFECE" filter="url(#f1hi1lgrjvob5c)" height="60.8047" id="Truck" style="stroke:#A80036;stroke-width:1.5;" width="132" x="7" y="91.9531"/><ellipse cx="52.25" cy="107.9531" fill="#ADD1B2" rx="11" ry="11" style="stroke:#A80036;stroke-width:1.0;"/><path d="M54.5938,103.625 C53.6563,103.1875 53.0625,103.0469 52.1875,103.0469 C49.5625,103.0469 47.5625,105.125 47.5625,107.8438 L47.5625,108.9688 C47.5625,111.5469 49.6719,113.4375 52.5625,113.4375 C53.7813,113.4375 54.9375,113.1406 55.6875,112.5938 C56.2656,112.1875 56.5938,111.7344 56.5938,111.3438 C56.5938,110.8906 56.2031,110.5 55.7344,110.5 C55.5156,110.5 55.3125,110.5781 55.125,110.7656 C54.6719,111.25 54.6719,111.25 54.4844,111.3438 C54.0625,111.6094 53.375,111.7344 52.6094,111.7344 C50.5625,111.7344 49.2656,110.6406 49.2656,108.9375 L49.2656,107.8438 C49.2656,106.0625 50.5156,104.75 52.25,104.75 C52.8281,104.75 53.4375,104.9063 53.9063,105.1563 C54.3906,105.4375 54.5625,105.6563 54.6563,106.0625 C54.7188,106.4688 54.75,106.5938 54.8906,106.7188 C55.0313,106.8594 55.2656,106.9688 55.4844,106.9688 C55.75,106.9688 56.0156,106.8281 56.1875,106.6094 C56.2969,106.4531 56.3281,106.2656 56.3281,105.8438 L56.3281,104.4219 C56.3281,103.9844 56.3125,103.8594 56.2188,103.7031 C56.0625,103.4375 55.7813,103.2969 55.4844,103.2969 C55.1875,103.2969 54.9844,103.3906 54.7656,103.7031 L54.5938,103.625 Z " fill="#000000"/><text fill="#000000" font-family="sans-serif" font-size="12" lengthAdjust="spacing" textLength="33" x="72.75" y="112.1074">Truck</text><line style="stroke:#A80036;stroke-width:1.5;" x1="8" x2="138" y1="123.9531" y2="123.9531"/><text fill="#000000" font-family="sans-serif" font-size="11" lengthAdjust="spacing" textLength="120" x="13" y="138.1636">int registration_plate;</text><line style="stroke:#A80036;stroke-width:1.5;" x1="8" x2="138" y1="144.7578" y2="144.7578"/><!--MD5=[a0bfe97ac0a38e6e74cc1c7c7b744b71]
class Port--><rect codeLine="39" fill="#FEFECE" filter="url(#f1hi1lgrjvob5c)" height="112.0234" id="Port" style="stroke:#A80036;stroke-width:1.5;" width="103" x="371.5" y="293.9531"/><ellipse cx="408.1" cy="309.9531" fill="#ADD1B2" rx="11" ry="11" style="stroke:#A80036;stroke-width:1.0;"/><path d="M410.4438,305.625 C409.5063,305.1875 408.9125,305.0469 408.0375,305.0469 C405.4125,305.0469 403.4125,307.125 403.4125,309.8438 L403.4125,310.9688 C403.4125,313.5469 405.5219,315.4375 408.4125,315.4375 C409.6313,315.4375 410.7875,315.1406 411.5375,314.5938 C412.1156,314.1875 412.4438,313.7344 412.4438,313.3438 C412.4438,312.8906 412.0531,312.5 411.5844,312.5 C411.3656,312.5 411.1625,312.5781 410.975,312.7656 C410.5219,313.25 410.5219,313.25 410.3344,313.3438 C409.9125,313.6094 409.225,313.7344 408.4594,313.7344 C406.4125,313.7344 405.1156,312.6406 405.1156,310.9375 L405.1156,309.8438 C405.1156,308.0625 406.3656,306.75 408.1,306.75 C408.6781,306.75 409.2875,306.9063 409.7563,307.1563 C410.2406,307.4375 410.4125,307.6563 410.5063,308.0625 C410.5688,308.4688 410.6,308.5938 410.7406,308.7188 C410.8813,308.8594 411.1156,308.9688 411.3344,308.9688 C411.6,308.9688 411.8656,308.8281 412.0375,308.6094 C412.1469,308.4531 412.1781,308.2656 412.1781,307.8438 L412.1781,306.4219 C412.1781,305.9844 412.1625,305.8594 412.0688,305.7031 C411.9125,305.4375 411.6313,305.2969 411.3344,305.2969 C411.0375,305.2969 410.8344,305.3906 410.6156,305.7031 L410.4438,305.625 Z " fill="#000000"/><text fill="#000000" font-family="sans-serif" font-size="12" lengthAdjust="spacing" textLength="23" x="426.9" y="314.1074">Port</text><line style="stroke:#A80036;stroke-width:1.5;" x1="372.5" x2="473.5" y1="325.9531" y2="325.9531"/><text fill="#000000" font-family="sans-serif" font-size="11" lengthAdjust="spacing" textLength="31" x="377.5" y="340.1636">int id;</text><text fill="#000000" font-family="sans-serif" font-size="11" lengthAdjust="spacing" textLength="71" x="377.5" y="352.9683">string name;</text><text fill="#000000" font-family="sans-serif" font-size="11" lengthAdjust="spacing" textLength="91" x="377.5" y="365.7729">string continent;</text><text fill="#000000" font-family="sans-serif" font-size="11" lengthAdjust="spacing" textLength="80" x="377.5" y="378.5776">string country;</text><text fill="#000000" font-family="sans-serif" font-size="11" lengthAdjust="spacing" textLength="82" x="377.5" y="391.3823">string location;</text><line style="stroke:#A80036;stroke-width:1.5;" x1="372.5" x2="473.5" y1="397.9766" y2="397.9766"/><!--MD5=[c5149b4909ffd2688ff51a939867f774]
class Warehouse--><rect codeLine="47" fill="#FEFECE" filter="url(#f1hi1lgrjvob5c)" height="112.0234" id="Warehouse" style="stroke:#A80036;stroke-width:1.5;" width="103" x="114.5" y="293.9531"/><ellipse cx="130.4" cy="309.9531" fill="#ADD1B2" rx="11" ry="11" style="stroke:#A80036;stroke-width:1.0;"/><path d="M132.7438,305.625 C131.8063,305.1875 131.2125,305.0469 130.3375,305.0469 C127.7125,305.0469 125.7125,307.125 125.7125,309.8438 L125.7125,310.9688 C125.7125,313.5469 127.8219,315.4375 130.7125,315.4375 C131.9313,315.4375 133.0875,315.1406 133.8375,314.5938 C134.4156,314.1875 134.7438,313.7344 134.7438,313.3438 C134.7438,312.8906 134.3531,312.5 133.8844,312.5 C133.6656,312.5 133.4625,312.5781 133.275,312.7656 C132.8219,313.25 132.8219,313.25 132.6344,313.3438 C132.2125,313.6094 131.525,313.7344 130.7594,313.7344 C128.7125,313.7344 127.4156,312.6406 127.4156,310.9375 L127.4156,309.8438 C127.4156,308.0625 128.6656,306.75 130.4,306.75 C130.9781,306.75 131.5875,306.9063 132.0563,307.1563 C132.5406,307.4375 132.7125,307.6563 132.8063,308.0625 C132.8688,308.4688 132.9,308.5938 133.0406,308.7188 C133.1813,308.8594 133.4156,308.9688 133.6344,308.9688 C133.9,308.9688 134.1656,308.8281 134.3375,308.6094 C134.4469,308.4531 134.4781,308.2656 134.4781,307.8438 L134.4781,306.4219 C134.4781,305.9844 134.4625,305.8594 134.3688,305.7031 C134.2125,305.4375 133.9313,305.2969 133.6344,305.2969 C133.3375,305.2969 133.1344,305.3906 132.9156,305.7031 L132.7438,305.625 Z " fill="#000000"/><text fill="#000000" font-family="sans-serif" font-size="12" lengthAdjust="spacing" textLength="69" x="144.6" y="314.1074">Warehouse</text><line style="stroke:#A80036;stroke-width:1.5;" x1="115.5" x2="216.5" y1="325.9531" y2="325.9531"/><text fill="#000000" font-family="sans-serif" font-size="11" lengthAdjust="spacing" textLength="31" x="120.5" y="340.1636">int id;</text><text fill="#000000" font-family="sans-serif" font-size="11" lengthAdjust="spacing" textLength="71" x="120.5" y="352.9683">string name;</text><text fill="#000000" font-family="sans-serif" font-size="11" lengthAdjust="spacing" textLength="91" x="120.5" y="365.7729">string continent;</text><text fill="#000000" font-family="sans-serif" font-size="11" lengthAdjust="spacing" textLength="80" x="120.5" y="378.5776">string country;</text><text fill="#000000" font-family="sans-serif" font-size="11" lengthAdjust="spacing" textLength="82" x="120.5" y="391.3823">string location;</text><line style="stroke:#A80036;stroke-width:1.5;" x1="115.5" x2="216.5" y1="397.9766" y2="397.9766"/><!--MD5=[7421f545a0d8420c5bec41e74b387d9c]
class Employee--><rect codeLine="55" fill="#FEFECE" filter="url(#f1hi1lgrjvob5c)" height="73.6094" id="Employee" style="stroke:#A80036;stroke-width:1.5;" width="92" x="393" y="488.9531"/><ellipse cx="408" cy="504.9531" fill="#ADD1B2" rx="11" ry="11" style="stroke:#A80036;stroke-width:1.0;"/><path d="M410.3438,500.625 C409.4063,500.1875 408.8125,500.0469 407.9375,500.0469 C405.3125,500.0469 403.3125,502.125 403.3125,504.8438 L403.3125,505.9688 C403.3125,508.5469 405.4219,510.4375 408.3125,510.4375 C409.5313,510.4375 410.6875,510.1406 411.4375,509.5938 C412.0156,509.1875 412.3438,508.7344 412.3438,508.3438 C412.3438,507.8906 411.9531,507.5 411.4844,507.5 C411.2656,507.5 411.0625,507.5781 410.875,507.7656 C410.4219,508.25 410.4219,508.25 410.2344,508.3438 C409.8125,508.6094 409.125,508.7344 408.3594,508.7344 C406.3125,508.7344 405.0156,507.6406 405.0156,505.9375 L405.0156,504.8438 C405.0156,503.0625 406.2656,501.75 408,501.75 C408.5781,501.75 409.1875,501.9063 409.6563,502.1563 C410.1406,502.4375 410.3125,502.6563 410.4063,503.0625 C410.4688,503.4688 410.5,503.5938 410.6406,503.7188 C410.7813,503.8594 411.0156,503.9688 411.2344,503.9688 C411.5,503.9688 411.7656,503.8281 411.9375,503.6094 C412.0469,503.4531 412.0781,503.2656 412.0781,502.8438 L412.0781,501.4219 C412.0781,500.9844 412.0625,500.8594 411.9688,500.7031 C411.8125,500.4375 411.5313,500.2969 411.2344,500.2969 C410.9375,500.2969 410.7344,500.3906 410.5156,500.7031 L410.3438,500.625 Z " fill="#000000"/><text fill="#000000" font-family="sans-serif" font-size="12" lengthAdjust="spacing" textLength="60" x="422" y="509.1074">Employee</text><line style="stroke:#A80036;stroke-width:1.5;" x1="394" x2="484" y1="520.9531" y2="520.9531"/><text fill="#000000" font-family="sans-serif" font-size="11" lengthAdjust="spacing" textLength="31" x="399" y="535.1636">int id;</text><text fill="#000000" font-family="sans-serif" font-size="11" lengthAdjust="spacing" textLength="71" x="399" y="547.9683">string name;</text><line style="stroke:#A80036;stroke-width:1.5;" x1="394" x2="484" y1="554.5625" y2="554.5625"/><!--MD5=[5fd98a8c03cc0e5a408f548eb1c0ace8]
link Company to Port--><path codeLine="60" d="M255.308,146.7361 C283.863,181.1701 338.184,246.6751 377.273,293.8121 " fill="none" id="Company-Port" style="stroke:#A80036;stroke-width:1.0;"/><polygon fill="#000000" points="360.1917,259.3683,356.6801,250.5298,352.1556,254.2818,360.1917,259.3683" style="stroke:#000000;stroke-width:1.0;"/><text fill="#000000" font-family="sans-serif" font-size="13" lengthAdjust="spacing" textLength="23" x="366" y="260.02">has</text><text fill="#000000" font-family="sans-serif" font-size="13" lengthAdjust="spacing" textLength="8" x="251.0393" y="166.5663">1</text><text fill="#000000" font-family="sans-serif" font-size="13" lengthAdjust="spacing" textLength="7" x="363.9658" y="282.732">*</text><!--MD5=[acda98ef2513d819683ba761a9c77b11]
link Company to Warehouse--><path codeLine="61" d="M228.772,146.7361 C218.083,181.1701 197.749,246.6751 183.117,293.8121 " fill="none" id="Company-Warehouse" style="stroke:#A80036;stroke-width:1.0;"/><polygon fill="#000000" points="200.5177,260.2948,206.006,252.5276,200.3924,250.785,200.5177,260.2948" style="stroke:#000000;stroke-width:1.0;"/><text fill="#000000" font-family="sans-serif" font-size="13" lengthAdjust="spacing" textLength="23" x="211" y="260.02">has</text><text fill="#000000" font-family="sans-serif" font-size="13" lengthAdjust="spacing" textLength="8" x="218.0352" y="166.5663">1</text><text fill="#000000" font-family="sans-serif" font-size="13" lengthAdjust="spacing" textLength="7" x="177.8617" y="282.732">*</text><!--MD5=[fa82a3f945f47fef7f5178ebed81cb5d]
link Port to Cargo_Manifest--><path codeLine="62" d="M371.444,401.5021 C361.231,412.4761 350.921,424.2991 342,435.9531 C330.905,450.4481 320.159,467.3581 311.214,482.5231 " fill="none" id="Port-Cargo_Manifest" style="stroke:#A80036;stroke-width:1.0;"/><polygon fill="#000000" points="344.017,448.5322,351.7719,443.0265,347.0547,439.5198,344.017,448.5322" style="stroke:#000000;stroke-width:1.0;"/><text fill="#000000" font-family="sans-serif" font-size="13" lengthAdjust="spacing" textLength="66" x="356" y="449.02">receives a</text><text fill="#000000" font-family="sans-serif" font-size="13" lengthAdjust="spacing" textLength="8" x="355.6314" y="404.7711">1</text><text fill="#000000" font-family="sans-serif" font-size="13" lengthAdjust="spacing" textLength="7" x="307.2327" y="471.7698">*</text><!--MD5=[7a51b159350d50d2962e5a3e89520440]
link Warehouse to Cargo_Manifest--><path codeLine="63" d="M114.454,395.2041 C99.5407,413.3451 90.3108,434.3981 103,452.9531 C130.335,492.9231 183.389,510.7071 225.699,518.6181 " fill="none" id="Warehouse-Cargo_Manifest" style="stroke:#A80036;stroke-width:1.0;"/><polygon fill="#000000" points="111.3477,448.2334,107.4746,439.5472,103.1087,443.4827,111.3477,448.2334" style="stroke:#000000;stroke-width:1.0;"/><text fill="#000000" font-family="sans-serif" font-size="13" lengthAdjust="spacing" textLength="66" x="117" y="449.02">receives a</text><text fill="#000000" font-family="sans-serif" font-size="13" lengthAdjust="spacing" textLength="8" x="98.6428" y="397.5874">1</text><text fill="#000000" font-family="sans-serif" font-size="13" lengthAdjust="spacing" textLength="7" x="211.0908" y="530.6878">*</text><!--MD5=[56127ccb70193a52dc3f681a8e3969fb]
link Cargo_Manifest to Container--><path codeLine="64" d="M321.583,569.3861 C339.408,591.9081 361.746,620.1321 381.942,645.6501 " fill="none" id="Cargo_Manifest-Container" style="stroke:#A80036;stroke-width:1.0;"/><polygon fill="#000000" points="366.103,611.4402,362.7941,602.5238,358.1851,606.1716,366.103,611.4402" style="stroke:#000000;stroke-width:1.0;"/><text fill="#000000" font-family="sans-serif" font-size="13" lengthAdjust="spacing" textLength="142" x="372" y="612.02">has information about</text><text fill="#000000" font-family="sans-serif" font-size="13" lengthAdjust="spacing" textLength="7" x="319.3775" y="589.5481">*</text><text fill="#000000" font-family="sans-serif" font-size="13" lengthAdjust="spacing" textLength="7" x="369.0063" y="634.8225">*</text><!--MD5=[ba54223a31981c52d18c1dd571f5520c]
link Ship to Container--><path codeLine="65" d="M472.844,217.0571 C477.009,226.9951 480.833,237.0791 484,246.9531 C507.938,321.5751 504.797,239.8421 523,598.9531 C523.382,606.4991 525.683,608.8901 523,615.9531 C516.618,632.7551 505.89,648.5201 494.106,662.2871 " fill="none" id="Ship-Container" style="stroke:#A80036;stroke-width:1.0;"/><polygon fill="#000000" points="521.2385,449.5138,523.7426,440.3389,517.8715,440.6192,521.2385,449.5138" style="stroke:#000000;stroke-width:1.0;"/><text fill="#000000" font-family="sans-serif" font-size="13" lengthAdjust="spacing" textLength="32" x="530" y="449.02">have</text><text fill="#000000" font-family="sans-serif" font-size="13" lengthAdjust="spacing" textLength="8" x="468.2774" y="236.9521">1</text><text fill="#000000" font-family="sans-serif" font-size="13" lengthAdjust="spacing" textLength="7" x="501.9993" y="651.6773">*</text><!--MD5=[c3f9abbbd000055c8594dc45c5c213b3]
link Ship to Cargo_Manifest--><path codeLine="66" d="M347.739,212.7321 C330.957,237.4821 315.625,265.4321 307,293.9531 C287.722,357.6981 285.429,435.5671 286.217,482.6571 " fill="none" id="Ship-Cargo_Manifest" style="stroke:#A80036;stroke-width:1.0;"/><polygon fill="#000000" points="310.8889,354.8945,315.7644,346.7287,310.0335,345.4225,310.8889,354.8945" style="stroke:#000000;stroke-width:1.0;"/><text fill="#000000" font-family="sans-serif" font-size="13" lengthAdjust="spacing" textLength="32" x="321" y="354.52">have</text><text fill="#000000" font-family="sans-serif" font-size="13" lengthAdjust="spacing" textLength="8" x="332.0891" y="217.7023">1</text><text fill="#000000" font-family="sans-serif" font-size="13" lengthAdjust="spacing" textLength="7" x="278.408" y="471.9243">*</text><!--MD5=[e286db40d4dc071fc67b9ff133e9b52b]
link Ship to Port--><path codeLine="67" d="M423.585,217.1261 C423.469,243.2641 423.347,270.8101 423.244,293.9251 " fill="none" id="Ship-Port" style="stroke:#A80036;stroke-width:1.0;"/><polygon fill="#000000" points="429.0222,250.5196,426.0431,259.5515,431.9209,259.5776,429.0222,250.5196" style="stroke:#000000;stroke-width:1.0;"/><text fill="#000000" font-family="sans-serif" font-size="13" lengthAdjust="spacing" textLength="37" x="438" y="260.02">docks</text><text fill="#000000" font-family="sans-serif" font-size="13" lengthAdjust="spacing" textLength="7" x="416.2853" y="237.0264">*</text><text fill="#000000" font-family="sans-serif" font-size="13" lengthAdjust="spacing" textLength="7" x="415.8268" y="282.8595">*</text><!--MD5=[668bfb6c3cf503ab645d5414a0ff2b4e]
link Truck to Warehouse--><path codeLine="68" d="M79.8772,152.9641 C87.1172,181.9031 99.7219,226.9431 116,263.9531 C120.343,273.8261 125.576,283.9881 130.998,293.6981 " fill="none" id="Truck-Warehouse" style="stroke:#A80036;stroke-width:1.0;"/><polygon fill="#000000" points="119.2929,250.82,119.6187,260.325,125.1434,258.3182,119.2929,250.82" style="stroke:#000000;stroke-width:1.0;"/><text fill="#000000" font-family="sans-serif" font-size="13" lengthAdjust="spacing" textLength="54" x="130" y="260.02">receives</text><text fill="#000000" font-family="sans-serif" font-size="13" lengthAdjust="spacing" textLength="7" x="73.5737" y="172.9046">*</text><text fill="#000000" font-family="sans-serif" font-size="13" lengthAdjust="spacing" textLength="7" x="119.3056" y="283.0015">*</text><!--MD5=[6f30cc5d122f8039bb2f6b40f6be2363]
link Truck to Cargo_Manifest--><path codeLine="69" d="M62.6323,153.0221 C45.8747,205.6921 17.8017,318.4401 50,405.9531 C75.8415,476.1881 164.285,505.1861 225.751,517.0111 " fill="none" id="Truck-Cargo_Manifest" style="stroke:#A80036;stroke-width:1.0;"/><polygon fill="#000000" points="57.0448,354.5823,56.0277,345.1263,50.6638,347.5301,57.0448,354.5823" style="stroke:#000000;stroke-width:1.0;"/><text fill="#000000" font-family="sans-serif" font-size="13" lengthAdjust="spacing" textLength="32" x="64" y="354.52">have</text><text fill="#000000" font-family="sans-serif" font-size="13" lengthAdjust="spacing" textLength="8" x="51.669" y="172.9746">1</text><text fill="#000000" font-family="sans-serif" font-size="13" lengthAdjust="spacing" textLength="7" x="211.1488" y="512.1607">*</text><!--MD5=[9526f499cdb1aa8773d66684248da363]
link Port to Employee--><path codeLine="70" d="M428.062,406.0081 C430.553,433.0891 433.484,464.9661 435.685,488.9001 " fill="none" id="Port-Employee" style="stroke:#A80036;stroke-width:1.0;"/><polygon fill="#000000" points="437.4579,449.4985,439.5561,440.2223,433.703,440.7606,437.4579,449.4985" style="stroke:#000000;stroke-width:1.0;"/><text fill="#000000" font-family="sans-serif" font-size="13" lengthAdjust="spacing" textLength="23" x="446" y="449.02">has</text><text fill="#000000" font-family="sans-serif" font-size="13" lengthAdjust="spacing" textLength="8" x="420.1981" y="426.225">1</text><text fill="#000000" font-family="sans-serif" font-size="13" lengthAdjust="spacing" textLength="7" x="427.4285" y="477.8008">*</text><!--MD5=[6d87139c19e5629643618c9713db95d3]
link Warehouse to Employee--><path codeLine="71" d="M217.67,402.3171 C237.525,420.0751 261.166,438.9991 285,452.9531 C318.489,472.5601 331.88,466.4451 367,482.9531 C375.513,486.9541 384.344,491.6321 392.784,496.3831 " fill="none" id="Warehouse-Employee" style="stroke:#A80036;stroke-width:1.0;"/><polygon fill="#000000" points="294.4047,446.8856,287.8273,440.0163,285.0457,445.1944,294.4047,446.8856" style="stroke:#000000;stroke-width:1.0;"/><text fill="#000000" font-family="sans-serif" font-size="13" lengthAdjust="spacing" textLength="23" x="299" y="449.02">has</text><text fill="#000000" font-family="sans-serif" font-size="13" lengthAdjust="spacing" textLength="8" x="225.4986" y="405.7007">1</text><text fill="#000000" font-family="sans-serif" font-size="13" lengthAdjust="spacing" textLength="7" x="377.8605" y="487.5837">*</text><!--MD5=[7ce6da79e0e5b368fab7a50b79b13a53]
@startuml
title Relationships - Class Diagram

class Company

class Container {
int id;
float payload;
float tare;
float gross;
string iso_code;
int refrigerated;
float temperature;
}

class Cargo_Manifest {
int id;
float gross_weight;
int pos_container;
}

class Ship {
int MMSI;
string name;
int id_ship;
int number_energy_gen;
fload gen_power_output;
int callsign;
int ship_type;
float length;
float width;
float capacity;
float draft;
}

class Truck {
int registration_plate;
}

class Port {
int id;
string name;
string continent;
string country;
string location;
}

class Warehouse {
int id;
string name;
string continent;
string country;
string location;
}

class Employee {
int id;
string name;
}

Company "1" - - "*" Port: has >
Company "1" - - "*" Warehouse: has >
Port "1" - - "*" Cargo_Manifest: receives a >
Warehouse "1" - - "*" Cargo_Manifest: receives a >
Cargo_Manifest "*" - - "*" Container: has information about >
Ship "1" - - "*" Container: have >
Ship "1" - - "*" Cargo_Manifest: have >
Ship "*" - - "*" Port: docks <
Truck "*" - - "*" Warehouse: receives <
Truck "1" - - "*" Cargo_Manifest: have >
Port "1" - - "*" Employee: has >
Warehouse "1" - - "*" Employee: has >
@enduml

PlantUML version 1.2021.13beta8(Unknown compile time)
(GPL source distribution)
Java Runtime: Java(TM) SE Runtime Environment
JVM: Java HotSpot(TM) 64-Bit Server VM
Default Encoding: UTF-8
Language: en
Country: US
--></g></svg>