<?xml version="1.0" encoding="UTF-8" standalone="no"?><svg xmlns="http://www.w3.org/2000/svg" xmlns:xlink="http://www.w3.org/1999/xlink" contentScriptType="application/ecmascript" contentStyleType="text/css" height="797px" preserveAspectRatio="none" style="width:1172px;height:797px;background:#FFFFFF;" version="1.1" viewBox="0 0 1172 797" width="1172px" zoomAndPan="magnify"><defs><filter height="300%" id="f1l13klfdhdsip" width="300%" x="-1" y="-1"><feGaussianBlur result="blurOut" stdDeviation="2.0"/><feColorMatrix in="blurOut" result="blurOut2" type="matrix" values="0 0 0 0 0 0 0 0 0 0 0 0 0 0 0 0 0 0 .4 0"/><feOffset dx="4.0" dy="4.0" in="blurOut2" result="blurOut3"/><feBlend in="SourceGraphic" in2="blurOut3" mode="normal"/></filter></defs><g><text fill="#000000" font-family="sans-serif" font-size="18" lengthAdjust="spacing" textLength="277" x="441.3831" y="16.708">Relationships - Class Diagram</text><!--MD5=[02e4b9b7573f1156f41e60aa5b4e25a4]
class Company--><rect codeLine="3" fill="#FEFECE" filter="url(#f1l13klfdhdsip)" height="48" id="Company" style="stroke:#A80036;stroke-width:1.5;" width="88" x="679.7661" y="98.4531"/><ellipse cx="694.7661" cy="114.4531" fill="#ADD1B2" rx="11" ry="11" style="stroke:#A80036;stroke-width:1.0;"/><path d="M697.1098,110.125 C696.1723,109.6875 695.5786,109.5469 694.7036,109.5469 C692.0786,109.5469 690.0786,111.625 690.0786,114.3438 L690.0786,115.4688 C690.0786,118.0469 692.188,119.9375 695.0786,119.9375 C696.2973,119.9375 697.4536,119.6406 698.2036,119.0938 C698.7817,118.6875 699.1098,118.2344 699.1098,117.8438 C699.1098,117.3906 698.7192,117 698.2505,117 C698.0317,117 697.8286,117.0781 697.6411,117.2656 C697.188,117.75 697.188,117.75 697.0005,117.8438 C696.5786,118.1094 695.8911,118.2344 695.1255,118.2344 C693.0786,118.2344 691.7817,117.1406 691.7817,115.4375 L691.7817,114.3438 C691.7817,112.5625 693.0317,111.25 694.7661,111.25 C695.3442,111.25 695.9536,111.4063 696.4223,111.6563 C696.9067,111.9375 697.0786,112.1563 697.1723,112.5625 C697.2348,112.9688 697.2661,113.0938 697.4067,113.2188 C697.5473,113.3594 697.7817,113.4688 698.0005,113.4688 C698.2661,113.4688 698.5317,113.3281 698.7036,113.1094 C698.813,112.9531 698.8442,112.7656 698.8442,112.3438 L698.8442,110.9219 C698.8442,110.4844 698.8286,110.3594 698.7348,110.2031 C698.5786,109.9375 698.2973,109.7969 698.0005,109.7969 C697.7036,109.7969 697.5005,109.8906 697.2817,110.2031 L697.1098,110.125 Z " fill="#000000"/><text fill="#000000" font-family="sans-serif" font-size="12" lengthAdjust="spacing" textLength="56" x="708.7661" y="118.6074">Company</text><line style="stroke:#A80036;stroke-width:1.5;" x1="680.7661" x2="766.7661" y1="130.4531" y2="130.4531"/><line style="stroke:#A80036;stroke-width:1.5;" x1="680.7661" x2="766.7661" y1="138.4531" y2="138.4531"/><!--MD5=[e9a58730c562b34349daa605d1ed6662]
class Container--><rect codeLine="5" fill="#FEFECE" filter="url(#f1l13klfdhdsip)" height="137.6328" id="Container" style="stroke:#A80036;stroke-width:1.5;" width="116" x="138.766" y="645.9531"/><ellipse cx="165.916" cy="661.9531" fill="#ADD1B2" rx="11" ry="11" style="stroke:#A80036;stroke-width:1.0;"/><path d="M168.2598,657.625 C167.3223,657.1875 166.7285,657.0469 165.8535,657.0469 C163.2285,657.0469 161.2285,659.125 161.2285,661.8438 L161.2285,662.9688 C161.2285,665.5469 163.3379,667.4375 166.2285,667.4375 C167.4473,667.4375 168.6035,667.1406 169.3535,666.5938 C169.9316,666.1875 170.2598,665.7344 170.2598,665.3438 C170.2598,664.8906 169.8691,664.5 169.4004,664.5 C169.1816,664.5 168.9785,664.5781 168.791,664.7656 C168.3379,665.25 168.3379,665.25 168.1504,665.3438 C167.7285,665.6094 167.041,665.7344 166.2754,665.7344 C164.2285,665.7344 162.9316,664.6406 162.9316,662.9375 L162.9316,661.8438 C162.9316,660.0625 164.1816,658.75 165.916,658.75 C166.4941,658.75 167.1035,658.9063 167.5723,659.1563 C168.0566,659.4375 168.2285,659.6563 168.3223,660.0625 C168.3848,660.4688 168.416,660.5938 168.5566,660.7188 C168.6973,660.8594 168.9316,660.9688 169.1504,660.9688 C169.416,660.9688 169.6816,660.8281 169.8535,660.6094 C169.9629,660.4531 169.9941,660.2656 169.9941,659.8438 L169.9941,658.4219 C169.9941,657.9844 169.9785,657.8594 169.8848,657.7031 C169.7285,657.4375 169.4473,657.2969 169.1504,657.2969 C168.8535,657.2969 168.6504,657.3906 168.4316,657.7031 L168.2598,657.625 Z " fill="#000000"/><text fill="#000000" font-family="sans-serif" font-size="12" lengthAdjust="spacing" textLength="57" x="182.616" y="666.1074">Container</text><line style="stroke:#A80036;stroke-width:1.5;" x1="139.766" x2="253.766" y1="677.9531" y2="677.9531"/><text fill="#000000" font-family="sans-serif" font-size="11" lengthAdjust="spacing" textLength="31" x="144.766" y="692.1636">int id;</text><text fill="#000000" font-family="sans-serif" font-size="11" lengthAdjust="spacing" textLength="77" x="144.766" y="704.9683">float payload;</text><text fill="#000000" font-family="sans-serif" font-size="11" lengthAdjust="spacing" textLength="55" x="144.766" y="717.7729">float tare;</text><text fill="#000000" font-family="sans-serif" font-size="11" lengthAdjust="spacing" textLength="62" x="144.766" y="730.5776">float gross;</text><text fill="#000000" font-family="sans-serif" font-size="11" lengthAdjust="spacing" textLength="88" x="144.766" y="743.3823">string iso_code;</text><text fill="#000000" font-family="sans-serif" font-size="11" lengthAdjust="spacing" textLength="89" x="144.766" y="756.187">int refrigerated;</text><text fill="#000000" font-family="sans-serif" font-size="11" lengthAdjust="spacing" textLength="104" x="144.766" y="768.9917">float temperature;</text><line style="stroke:#A80036;stroke-width:1.5;" x1="139.766" x2="253.766" y1="775.5859" y2="775.5859"/><!--MD5=[0baaf300b4e708ac3e376d44e9cdca27]
class Cargo_Manifest--><rect codeLine="15" fill="#FEFECE" filter="url(#f1l13klfdhdsip)" height="86.4141" id="Cargo_Manifest" style="stroke:#A80036;stroke-width:1.5;" width="124" x="575.7661" y="482.9531"/><ellipse cx="590.7661" cy="498.9531" fill="#ADD1B2" rx="11" ry="11" style="stroke:#A80036;stroke-width:1.0;"/><path d="M593.1098,494.625 C592.1723,494.1875 591.5786,494.0469 590.7036,494.0469 C588.0786,494.0469 586.0786,496.125 586.0786,498.8438 L586.0786,499.9688 C586.0786,502.5469 588.188,504.4375 591.0786,504.4375 C592.2973,504.4375 593.4536,504.1406 594.2036,503.5938 C594.7817,503.1875 595.1098,502.7344 595.1098,502.3438 C595.1098,501.8906 594.7192,501.5 594.2505,501.5 C594.0317,501.5 593.8286,501.5781 593.6411,501.7656 C593.188,502.25 593.188,502.25 593.0005,502.3438 C592.5786,502.6094 591.8911,502.7344 591.1255,502.7344 C589.0786,502.7344 587.7817,501.6406 587.7817,499.9375 L587.7817,498.8438 C587.7817,497.0625 589.0317,495.75 590.7661,495.75 C591.3442,495.75 591.9536,495.9063 592.4223,496.1563 C592.9067,496.4375 593.0786,496.6563 593.1723,497.0625 C593.2348,497.4688 593.2661,497.5938 593.4067,497.7188 C593.5473,497.8594 593.7817,497.9688 594.0005,497.9688 C594.2661,497.9688 594.5317,497.8281 594.7036,497.6094 C594.813,497.4531 594.8442,497.2656 594.8442,496.8438 L594.8442,495.4219 C594.8442,494.9844 594.8286,494.8594 594.7348,494.7031 C594.5786,494.4375 594.2973,494.2969 594.0005,494.2969 C593.7036,494.2969 593.5005,494.3906 593.2817,494.7031 L593.1098,494.625 Z " fill="#000000"/><text fill="#000000" font-family="sans-serif" font-size="12" lengthAdjust="spacing" textLength="92" x="604.7661" y="503.1074">Cargo_Manifest</text><line style="stroke:#A80036;stroke-width:1.5;" x1="576.7661" x2="698.7661" y1="514.9531" y2="514.9531"/><text fill="#000000" font-family="sans-serif" font-size="11" lengthAdjust="spacing" textLength="31" x="581.7661" y="529.1636">int id;</text><text fill="#000000" font-family="sans-serif" font-size="11" lengthAdjust="spacing" textLength="106" x="581.7661" y="541.9683">float gross_weight;</text><text fill="#000000" font-family="sans-serif" font-size="11" lengthAdjust="spacing" textLength="100" x="581.7661" y="554.7729">int pos_container;</text><line style="stroke:#A80036;stroke-width:1.5;" x1="576.7661" x2="698.7661" y1="561.3672" y2="561.3672"/><!--MD5=[0dc7f2ddb409b58bcf52b12238c25399]
class Ship--><rect codeLine="21" fill="#FEFECE" filter="url(#f1l13klfdhdsip)" height="188.8516" id="Ship" style="stroke:#A80036;stroke-width:1.5;" width="152" x="234.7661" y="27.9531"/><ellipse cx="293.5161" cy="43.9531" fill="#ADD1B2" rx="11" ry="11" style="stroke:#A80036;stroke-width:1.0;"/><path d="M295.8599,39.625 C294.9224,39.1875 294.3286,39.0469 293.4536,39.0469 C290.8286,39.0469 288.8286,41.125 288.8286,43.8438 L288.8286,44.9688 C288.8286,47.5469 290.938,49.4375 293.8286,49.4375 C295.0474,49.4375 296.2036,49.1406 296.9536,48.5938 C297.5317,48.1875 297.8599,47.7344 297.8599,47.3438 C297.8599,46.8906 297.4692,46.5 297.0005,46.5 C296.7817,46.5 296.5786,46.5781 296.3911,46.7656 C295.938,47.25 295.938,47.25 295.7505,47.3438 C295.3286,47.6094 294.6411,47.7344 293.8755,47.7344 C291.8286,47.7344 290.5317,46.6406 290.5317,44.9375 L290.5317,43.8438 C290.5317,42.0625 291.7817,40.75 293.5161,40.75 C294.0942,40.75 294.7036,40.9063 295.1724,41.1563 C295.6567,41.4375 295.8286,41.6563 295.9224,42.0625 C295.9849,42.4688 296.0161,42.5938 296.1567,42.7188 C296.2974,42.8594 296.5317,42.9688 296.7505,42.9688 C297.0161,42.9688 297.2817,42.8281 297.4536,42.6094 C297.563,42.4531 297.5942,42.2656 297.5942,41.8438 L297.5942,40.4219 C297.5942,39.9844 297.5786,39.8594 297.4849,39.7031 C297.3286,39.4375 297.0474,39.2969 296.7505,39.2969 C296.4536,39.2969 296.2505,39.3906 296.0317,39.7031 L295.8599,39.625 Z " fill="#000000"/><text fill="#000000" font-family="sans-serif" font-size="12" lengthAdjust="spacing" textLength="26" x="314.0161" y="48.1074">Ship</text><line style="stroke:#A80036;stroke-width:1.5;" x1="235.7661" x2="385.7661" y1="59.9531" y2="59.9531"/><text fill="#000000" font-family="sans-serif" font-size="11" lengthAdjust="spacing" textLength="50" x="240.7661" y="74.1636">int MMSI;</text><text fill="#000000" font-family="sans-serif" font-size="11" lengthAdjust="spacing" textLength="71" x="240.7661" y="86.9683">string name;</text><text fill="#000000" font-family="sans-serif" font-size="11" lengthAdjust="spacing" textLength="60" x="240.7661" y="99.7729">int id_ship;</text><text fill="#000000" font-family="sans-serif" font-size="11" lengthAdjust="spacing" textLength="140" x="240.7661" y="112.5776">int number_energy_gen;</text><text fill="#000000" font-family="sans-serif" font-size="11" lengthAdjust="spacing" textLength="140" x="240.7661" y="125.3823">fload gen_power_output;</text><text fill="#000000" font-family="sans-serif" font-size="11" lengthAdjust="spacing" textLength="63" x="240.7661" y="138.187">int callsign;</text><text fill="#000000" font-family="sans-serif" font-size="11" lengthAdjust="spacing" textLength="76" x="240.7661" y="150.9917">int ship_type;</text><text fill="#000000" font-family="sans-serif" font-size="11" lengthAdjust="spacing" textLength="68" x="240.7661" y="163.7964">float length;</text><text fill="#000000" font-family="sans-serif" font-size="11" lengthAdjust="spacing" textLength="62" x="240.7661" y="176.6011">float width;</text><text fill="#000000" font-family="sans-serif" font-size="11" lengthAdjust="spacing" textLength="79" x="240.7661" y="189.4058">float capacity;</text><text fill="#000000" font-family="sans-serif" font-size="11" lengthAdjust="spacing" textLength="58" x="240.7661" y="202.2104">float draft;</text><line style="stroke:#A80036;stroke-width:1.5;" x1="235.7661" x2="385.7661" y1="208.8047" y2="208.8047"/><!--MD5=[0b518a767dd1028241969b5a153606c0]
class ShipCallSign--><rect codeLine="35" fill="#FEFECE" filter="url(#f1l13klfdhdsip)" height="48" id="ShipCallSign" style="stroke:#A80036;stroke-width:1.5;" width="105" x="324.2661" y="325.9531"/><ellipse cx="339.2661" cy="341.9531" fill="#ADD1B2" rx="11" ry="11" style="stroke:#A80036;stroke-width:1.0;"/><path d="M341.6099,337.625 C340.6724,337.1875 340.0786,337.0469 339.2036,337.0469 C336.5786,337.0469 334.5786,339.125 334.5786,341.8438 L334.5786,342.9688 C334.5786,345.5469 336.688,347.4375 339.5786,347.4375 C340.7974,347.4375 341.9536,347.1406 342.7036,346.5938 C343.2817,346.1875 343.6099,345.7344 343.6099,345.3438 C343.6099,344.8906 343.2192,344.5 342.7505,344.5 C342.5317,344.5 342.3286,344.5781 342.1411,344.7656 C341.688,345.25 341.688,345.25 341.5005,345.3438 C341.0786,345.6094 340.3911,345.7344 339.6255,345.7344 C337.5786,345.7344 336.2817,344.6406 336.2817,342.9375 L336.2817,341.8438 C336.2817,340.0625 337.5317,338.75 339.2661,338.75 C339.8442,338.75 340.4536,338.9063 340.9224,339.1563 C341.4067,339.4375 341.5786,339.6563 341.6724,340.0625 C341.7349,340.4688 341.7661,340.5938 341.9067,340.7188 C342.0474,340.8594 342.2817,340.9688 342.5005,340.9688 C342.7661,340.9688 343.0317,340.8281 343.2036,340.6094 C343.313,340.4531 343.3442,340.2656 343.3442,339.8438 L343.3442,338.4219 C343.3442,337.9844 343.3286,337.8594 343.2349,337.7031 C343.0786,337.4375 342.7974,337.2969 342.5005,337.2969 C342.2036,337.2969 342.0005,337.3906 341.7817,337.7031 L341.6099,337.625 Z " fill="#000000"/><text fill="#000000" font-family="sans-serif" font-size="12" lengthAdjust="spacing" textLength="73" x="353.2661" y="346.1074">ShipCallSign</text><line style="stroke:#A80036;stroke-width:1.5;" x1="325.2661" x2="428.2661" y1="357.9531" y2="357.9531"/><line style="stroke:#A80036;stroke-width:1.5;" x1="325.2661" x2="428.2661" y1="365.9531" y2="365.9531"/><!--MD5=[1fc0a243ea956c06e91a39f313ddcfa8]
class ShipIMO--><rect codeLine="39" fill="#FEFECE" filter="url(#f1l13klfdhdsip)" height="48" id="ShipIMO" style="stroke:#A80036;stroke-width:1.5;" width="81" x="84.266" y="325.9531"/><ellipse cx="99.266" cy="341.9531" fill="#ADD1B2" rx="11" ry="11" style="stroke:#A80036;stroke-width:1.0;"/><path d="M101.6097,337.625 C100.6722,337.1875 100.0785,337.0469 99.2035,337.0469 C96.5785,337.0469 94.5785,339.125 94.5785,341.8438 L94.5785,342.9688 C94.5785,345.5469 96.6879,347.4375 99.5785,347.4375 C100.7972,347.4375 101.9535,347.1406 102.7035,346.5938 C103.2816,346.1875 103.6097,345.7344 103.6097,345.3438 C103.6097,344.8906 103.2191,344.5 102.7504,344.5 C102.5316,344.5 102.3285,344.5781 102.141,344.7656 C101.6879,345.25 101.6879,345.25 101.5004,345.3438 C101.0785,345.6094 100.391,345.7344 99.6254,345.7344 C97.5785,345.7344 96.2816,344.6406 96.2816,342.9375 L96.2816,341.8438 C96.2816,340.0625 97.5316,338.75 99.266,338.75 C99.8441,338.75 100.4535,338.9063 100.9222,339.1563 C101.4066,339.4375 101.5785,339.6563 101.6722,340.0625 C101.7347,340.4688 101.766,340.5938 101.9066,340.7188 C102.0472,340.8594 102.2816,340.9688 102.5004,340.9688 C102.766,340.9688 103.0316,340.8281 103.2035,340.6094 C103.3129,340.4531 103.3441,340.2656 103.3441,339.8438 L103.3441,338.4219 C103.3441,337.9844 103.3285,337.8594 103.2347,337.7031 C103.0785,337.4375 102.7972,337.2969 102.5004,337.2969 C102.2035,337.2969 102.0004,337.3906 101.7816,337.7031 L101.6097,337.625 Z " fill="#000000"/><text fill="#000000" font-family="sans-serif" font-size="12" lengthAdjust="spacing" textLength="49" x="113.266" y="346.1074">ShipIMO</text><line style="stroke:#A80036;stroke-width:1.5;" x1="85.266" x2="164.266" y1="357.9531" y2="357.9531"/><line style="stroke:#A80036;stroke-width:1.5;" x1="85.266" x2="164.266" y1="365.9531" y2="365.9531"/><!--MD5=[10842816a521f091e096081c0b3409a1]
class ShipMMSI--><rect codeLine="41" fill="#FEFECE" filter="url(#f1l13klfdhdsip)" height="48" id="ShipMMSI" style="stroke:#A80036;stroke-width:1.5;" width="89" x="200.2661" y="325.9531"/><ellipse cx="215.2661" cy="341.9531" fill="#ADD1B2" rx="11" ry="11" style="stroke:#A80036;stroke-width:1.0;"/><path d="M217.6099,337.625 C216.6724,337.1875 216.0786,337.0469 215.2036,337.0469 C212.5786,337.0469 210.5786,339.125 210.5786,341.8438 L210.5786,342.9688 C210.5786,345.5469 212.688,347.4375 215.5786,347.4375 C216.7974,347.4375 217.9536,347.1406 218.7036,346.5938 C219.2817,346.1875 219.6099,345.7344 219.6099,345.3438 C219.6099,344.8906 219.2192,344.5 218.7505,344.5 C218.5317,344.5 218.3286,344.5781 218.1411,344.7656 C217.688,345.25 217.688,345.25 217.5005,345.3438 C217.0786,345.6094 216.3911,345.7344 215.6255,345.7344 C213.5786,345.7344 212.2817,344.6406 212.2817,342.9375 L212.2817,341.8438 C212.2817,340.0625 213.5317,338.75 215.2661,338.75 C215.8442,338.75 216.4536,338.9063 216.9224,339.1563 C217.4067,339.4375 217.5786,339.6563 217.6724,340.0625 C217.7349,340.4688 217.7661,340.5938 217.9067,340.7188 C218.0474,340.8594 218.2817,340.9688 218.5005,340.9688 C218.7661,340.9688 219.0317,340.8281 219.2036,340.6094 C219.313,340.4531 219.3442,340.2656 219.3442,339.8438 L219.3442,338.4219 C219.3442,337.9844 219.3286,337.8594 219.2349,337.7031 C219.0786,337.4375 218.7974,337.2969 218.5005,337.2969 C218.2036,337.2969 218.0005,337.3906 217.7817,337.7031 L217.6099,337.625 Z " fill="#000000"/><text fill="#000000" font-family="sans-serif" font-size="12" lengthAdjust="spacing" textLength="57" x="229.2661" y="346.1074">ShipMMSI</text><line style="stroke:#A80036;stroke-width:1.5;" x1="201.2661" x2="288.2661" y1="357.9531" y2="357.9531"/><line style="stroke:#A80036;stroke-width:1.5;" x1="201.2661" x2="288.2661" y1="365.9531" y2="365.9531"/><!--MD5=[87cb0b5dfec3beb771c40a20dd3f8a77]
class ShipData--><rect codeLine="43" fill="#FEFECE" filter="url(#f1l13klfdhdsip)" height="137.6328" id="ShipData" style="stroke:#A80036;stroke-width:1.5;" width="160" x="998.7661" y="53.4531"/><ellipse cx="1048.0161" cy="69.4531" fill="#ADD1B2" rx="11" ry="11" style="stroke:#A80036;stroke-width:1.0;"/><path d="M1050.3598,65.125 C1049.4223,64.6875 1048.8286,64.5469 1047.9536,64.5469 C1045.3286,64.5469 1043.3286,66.625 1043.3286,69.3438 L1043.3286,70.4688 C1043.3286,73.0469 1045.438,74.9375 1048.3286,74.9375 C1049.5473,74.9375 1050.7036,74.6406 1051.4536,74.0938 C1052.0317,73.6875 1052.3598,73.2344 1052.3598,72.8438 C1052.3598,72.3906 1051.9692,72 1051.5005,72 C1051.2817,72 1051.0786,72.0781 1050.8911,72.2656 C1050.438,72.75 1050.438,72.75 1050.2505,72.8438 C1049.8286,73.1094 1049.1411,73.2344 1048.3755,73.2344 C1046.3286,73.2344 1045.0317,72.1406 1045.0317,70.4375 L1045.0317,69.3438 C1045.0317,67.5625 1046.2817,66.25 1048.0161,66.25 C1048.5942,66.25 1049.2036,66.4063 1049.6723,66.6563 C1050.1567,66.9375 1050.3286,67.1563 1050.4223,67.5625 C1050.4848,67.9688 1050.5161,68.0938 1050.6567,68.2188 C1050.7973,68.3594 1051.0317,68.4688 1051.2505,68.4688 C1051.5161,68.4688 1051.7817,68.3281 1051.9536,68.1094 C1052.063,67.9531 1052.0942,67.7656 1052.0942,67.3438 L1052.0942,65.9219 C1052.0942,65.4844 1052.0786,65.3594 1051.9848,65.2031 C1051.8286,64.9375 1051.5473,64.7969 1051.2505,64.7969 C1050.9536,64.7969 1050.7505,64.8906 1050.5317,65.2031 L1050.3598,65.125 Z " fill="#000000"/><text fill="#000000" font-family="sans-serif" font-size="12" lengthAdjust="spacing" textLength="53" x="1068.5161" y="73.6074">ShipData</text><line style="stroke:#A80036;stroke-width:1.5;" x1="999.7661" x2="1157.7661" y1="85.4531" y2="85.4531"/><text fill="#000000" font-family="sans-serif" font-size="11" lengthAdjust="spacing" textLength="148" x="1004.7661" y="99.6636">LocalDateTime dateTime;</text><text fill="#000000" font-family="sans-serif" font-size="11" lengthAdjust="spacing" textLength="89" x="1004.7661" y="112.4683">double latitude;</text><text fill="#000000" font-family="sans-serif" font-size="11" lengthAdjust="spacing" textLength="99" x="1004.7661" y="125.2729">double longitude;</text><text fill="#000000" font-family="sans-serif" font-size="11" lengthAdjust="spacing" textLength="66" x="1004.7661" y="138.0776">double sog;</text><text fill="#000000" font-family="sans-serif" font-size="11" lengthAdjust="spacing" textLength="66" x="1004.7661" y="150.8823">double cog;</text><text fill="#000000" font-family="sans-serif" font-size="11" lengthAdjust="spacing" textLength="92" x="1004.7661" y="163.687">double heading;</text><text fill="#000000" font-family="sans-serif" font-size="11" lengthAdjust="spacing" textLength="125" x="1004.7661" y="176.4917">char transceiverClass;</text><line style="stroke:#A80036;stroke-width:1.5;" x1="999.7661" x2="1157.7661" y1="183.0859" y2="183.0859"/><!--MD5=[f2ba7f6ab60af8dd0d3e354f91729b14]
class Truck--><rect codeLine="53" fill="#FEFECE" filter="url(#f1l13klfdhdsip)" height="60.8047" id="Truck" style="stroke:#A80036;stroke-width:1.5;" width="132" x="831.7661" y="91.9531"/><ellipse cx="877.0161" cy="107.9531" fill="#ADD1B2" rx="11" ry="11" style="stroke:#A80036;stroke-width:1.0;"/><path d="M879.3598,103.625 C878.4223,103.1875 877.8286,103.0469 876.9536,103.0469 C874.3286,103.0469 872.3286,105.125 872.3286,107.8438 L872.3286,108.9688 C872.3286,111.5469 874.438,113.4375 877.3286,113.4375 C878.5473,113.4375 879.7036,113.1406 880.4536,112.5938 C881.0317,112.1875 881.3598,111.7344 881.3598,111.3438 C881.3598,110.8906 880.9692,110.5 880.5005,110.5 C880.2817,110.5 880.0786,110.5781 879.8911,110.7656 C879.438,111.25 879.438,111.25 879.2505,111.3438 C878.8286,111.6094 878.1411,111.7344 877.3755,111.7344 C875.3286,111.7344 874.0317,110.6406 874.0317,108.9375 L874.0317,107.8438 C874.0317,106.0625 875.2817,104.75 877.0161,104.75 C877.5942,104.75 878.2036,104.9063 878.6723,105.1563 C879.1567,105.4375 879.3286,105.6563 879.4223,106.0625 C879.4848,106.4688 879.5161,106.5938 879.6567,106.7188 C879.7973,106.8594 880.0317,106.9688 880.2505,106.9688 C880.5161,106.9688 880.7817,106.8281 880.9536,106.6094 C881.063,106.4531 881.0942,106.2656 881.0942,105.8438 L881.0942,104.4219 C881.0942,103.9844 881.0786,103.8594 880.9848,103.7031 C880.8286,103.4375 880.5473,103.2969 880.2505,103.2969 C879.9536,103.2969 879.7505,103.3906 879.5317,103.7031 L879.3598,103.625 Z " fill="#000000"/><text fill="#000000" font-family="sans-serif" font-size="12" lengthAdjust="spacing" textLength="33" x="897.5161" y="112.1074">Truck</text><line style="stroke:#A80036;stroke-width:1.5;" x1="832.7661" x2="962.7661" y1="123.9531" y2="123.9531"/><text fill="#000000" font-family="sans-serif" font-size="11" lengthAdjust="spacing" textLength="120" x="837.7661" y="138.1636">int registration_plate;</text><line style="stroke:#A80036;stroke-width:1.5;" x1="832.7661" x2="962.7661" y1="144.7578" y2="144.7578"/><!--MD5=[a0bfe97ac0a38e6e74cc1c7c7b744b71]
class Port--><rect codeLine="57" fill="#FEFECE" filter="url(#f1l13klfdhdsip)" height="112.0234" id="Port" style="stroke:#A80036;stroke-width:1.5;" width="103" x="464.2661" y="293.9531"/><ellipse cx="500.8661" cy="309.9531" fill="#ADD1B2" rx="11" ry="11" style="stroke:#A80036;stroke-width:1.0;"/><path d="M503.2099,305.625 C502.2724,305.1875 501.6786,305.0469 500.8036,305.0469 C498.1786,305.0469 496.1786,307.125 496.1786,309.8438 L496.1786,310.9688 C496.1786,313.5469 498.288,315.4375 501.1786,315.4375 C502.3974,315.4375 503.5536,315.1406 504.3036,314.5938 C504.8817,314.1875 505.2099,313.7344 505.2099,313.3438 C505.2099,312.8906 504.8192,312.5 504.3505,312.5 C504.1317,312.5 503.9286,312.5781 503.7411,312.7656 C503.288,313.25 503.288,313.25 503.1005,313.3438 C502.6786,313.6094 501.9911,313.7344 501.2255,313.7344 C499.1786,313.7344 497.8817,312.6406 497.8817,310.9375 L497.8817,309.8438 C497.8817,308.0625 499.1317,306.75 500.8661,306.75 C501.4442,306.75 502.0536,306.9063 502.5224,307.1563 C503.0067,307.4375 503.1786,307.6563 503.2724,308.0625 C503.3349,308.4688 503.3661,308.5938 503.5067,308.7188 C503.6474,308.8594 503.8817,308.9688 504.1005,308.9688 C504.3661,308.9688 504.6317,308.8281 504.8036,308.6094 C504.913,308.4531 504.9442,308.2656 504.9442,307.8438 L504.9442,306.4219 C504.9442,305.9844 504.9286,305.8594 504.8349,305.7031 C504.6786,305.4375 504.3974,305.2969 504.1005,305.2969 C503.8036,305.2969 503.6005,305.3906 503.3817,305.7031 L503.2099,305.625 Z " fill="#000000"/><text fill="#000000" font-family="sans-serif" font-size="12" lengthAdjust="spacing" textLength="23" x="519.6661" y="314.1074">Port</text><line style="stroke:#A80036;stroke-width:1.5;" x1="465.2661" x2="566.2661" y1="325.9531" y2="325.9531"/><text fill="#000000" font-family="sans-serif" font-size="11" lengthAdjust="spacing" textLength="31" x="470.2661" y="340.1636">int id;</text><text fill="#000000" font-family="sans-serif" font-size="11" lengthAdjust="spacing" textLength="71" x="470.2661" y="352.9683">string name;</text><text fill="#000000" font-family="sans-serif" font-size="11" lengthAdjust="spacing" textLength="91" x="470.2661" y="365.7729">string continent;</text><text fill="#000000" font-family="sans-serif" font-size="11" lengthAdjust="spacing" textLength="80" x="470.2661" y="378.5776">string country;</text><text fill="#000000" font-family="sans-serif" font-size="11" lengthAdjust="spacing" textLength="82" x="470.2661" y="391.3823">string location;</text><line style="stroke:#A80036;stroke-width:1.5;" x1="465.2661" x2="566.2661" y1="397.9766" y2="397.9766"/><!--MD5=[c5149b4909ffd2688ff51a939867f774]
class Warehouse--><rect codeLine="65" fill="#FEFECE" filter="url(#f1l13klfdhdsip)" height="112.0234" id="Warehouse" style="stroke:#A80036;stroke-width:1.5;" width="103" x="722.2661" y="293.9531"/><ellipse cx="738.1661" cy="309.9531" fill="#ADD1B2" rx="11" ry="11" style="stroke:#A80036;stroke-width:1.0;"/><path d="M740.5098,305.625 C739.5723,305.1875 738.9786,305.0469 738.1036,305.0469 C735.4786,305.0469 733.4786,307.125 733.4786,309.8438 L733.4786,310.9688 C733.4786,313.5469 735.588,315.4375 738.4786,315.4375 C739.6973,315.4375 740.8536,315.1406 741.6036,314.5938 C742.1817,314.1875 742.5098,313.7344 742.5098,313.3438 C742.5098,312.8906 742.1192,312.5 741.6505,312.5 C741.4317,312.5 741.2286,312.5781 741.0411,312.7656 C740.588,313.25 740.588,313.25 740.4005,313.3438 C739.9786,313.6094 739.2911,313.7344 738.5255,313.7344 C736.4786,313.7344 735.1817,312.6406 735.1817,310.9375 L735.1817,309.8438 C735.1817,308.0625 736.4317,306.75 738.1661,306.75 C738.7442,306.75 739.3536,306.9063 739.8223,307.1563 C740.3067,307.4375 740.4786,307.6563 740.5723,308.0625 C740.6348,308.4688 740.6661,308.5938 740.8067,308.7188 C740.9473,308.8594 741.1817,308.9688 741.4005,308.9688 C741.6661,308.9688 741.9317,308.8281 742.1036,308.6094 C742.213,308.4531 742.2442,308.2656 742.2442,307.8438 L742.2442,306.4219 C742.2442,305.9844 742.2286,305.8594 742.1348,305.7031 C741.9786,305.4375 741.6973,305.2969 741.4005,305.2969 C741.1036,305.2969 740.9005,305.3906 740.6817,305.7031 L740.5098,305.625 Z " fill="#000000"/><text fill="#000000" font-family="sans-serif" font-size="12" lengthAdjust="spacing" textLength="69" x="752.3661" y="314.1074">Warehouse</text><line style="stroke:#A80036;stroke-width:1.5;" x1="723.2661" x2="824.2661" y1="325.9531" y2="325.9531"/><text fill="#000000" font-family="sans-serif" font-size="11" lengthAdjust="spacing" textLength="31" x="728.2661" y="340.1636">int id;</text><text fill="#000000" font-family="sans-serif" font-size="11" lengthAdjust="spacing" textLength="71" x="728.2661" y="352.9683">string name;</text><text fill="#000000" font-family="sans-serif" font-size="11" lengthAdjust="spacing" textLength="91" x="728.2661" y="365.7729">string continent;</text><text fill="#000000" font-family="sans-serif" font-size="11" lengthAdjust="spacing" textLength="80" x="728.2661" y="378.5776">string country;</text><text fill="#000000" font-family="sans-serif" font-size="11" lengthAdjust="spacing" textLength="82" x="728.2661" y="391.3823">string location;</text><line style="stroke:#A80036;stroke-width:1.5;" x1="723.2661" x2="824.2661" y1="397.9766" y2="397.9766"/><!--MD5=[7421f545a0d8420c5bec41e74b387d9c]
class Employee--><rect codeLine="73" fill="#FEFECE" filter="url(#f1l13klfdhdsip)" height="73.6094" id="Employee" style="stroke:#A80036;stroke-width:1.5;" width="92" x="429.7661" y="488.9531"/><ellipse cx="444.7661" cy="504.9531" fill="#ADD1B2" rx="11" ry="11" style="stroke:#A80036;stroke-width:1.0;"/><path d="M447.1099,500.625 C446.1724,500.1875 445.5786,500.0469 444.7036,500.0469 C442.0786,500.0469 440.0786,502.125 440.0786,504.8438 L440.0786,505.9688 C440.0786,508.5469 442.188,510.4375 445.0786,510.4375 C446.2974,510.4375 447.4536,510.1406 448.2036,509.5938 C448.7817,509.1875 449.1099,508.7344 449.1099,508.3438 C449.1099,507.8906 448.7192,507.5 448.2505,507.5 C448.0317,507.5 447.8286,507.5781 447.6411,507.7656 C447.188,508.25 447.188,508.25 447.0005,508.3438 C446.5786,508.6094 445.8911,508.7344 445.1255,508.7344 C443.0786,508.7344 441.7817,507.6406 441.7817,505.9375 L441.7817,504.8438 C441.7817,503.0625 443.0317,501.75 444.7661,501.75 C445.3442,501.75 445.9536,501.9063 446.4224,502.1563 C446.9067,502.4375 447.0786,502.6563 447.1724,503.0625 C447.2349,503.4688 447.2661,503.5938 447.4067,503.7188 C447.5474,503.8594 447.7817,503.9688 448.0005,503.9688 C448.2661,503.9688 448.5317,503.8281 448.7036,503.6094 C448.813,503.4531 448.8442,503.2656 448.8442,502.8438 L448.8442,501.4219 C448.8442,500.9844 448.8286,500.8594 448.7349,500.7031 C448.5786,500.4375 448.2974,500.2969 448.0005,500.2969 C447.7036,500.2969 447.5005,500.3906 447.2817,500.7031 L447.1099,500.625 Z " fill="#000000"/><text fill="#000000" font-family="sans-serif" font-size="12" lengthAdjust="spacing" textLength="60" x="458.7661" y="509.1074">Employee</text><line style="stroke:#A80036;stroke-width:1.5;" x1="430.7661" x2="520.7661" y1="520.9531" y2="520.9531"/><text fill="#000000" font-family="sans-serif" font-size="11" lengthAdjust="spacing" textLength="31" x="435.7661" y="535.1636">int id;</text><text fill="#000000" font-family="sans-serif" font-size="11" lengthAdjust="spacing" textLength="71" x="435.7661" y="547.9683">string name;</text><line style="stroke:#A80036;stroke-width:1.5;" x1="430.7661" x2="520.7661" y1="554.5625" y2="554.5625"/><!--MD5=[5fd98a8c03cc0e5a408f548eb1c0ace8]
link Company to Port--><path codeLine="78" d="M702.2901,146.7361 C670.5281,181.1701 610.1071,246.6751 566.6281,293.8121 " fill="none" id="Company-Port" style="stroke:#A80036;stroke-width:1.0;"/><polygon fill="#000000" points="609.3761,259.1948,617.669,254.5388,613.3484,250.5536,609.3761,259.1948" style="stroke:#000000;stroke-width:1.0;"/><text fill="#000000" font-family="sans-serif" font-size="13" lengthAdjust="spacing" textLength="23" x="621.7661" y="260.02">has</text><text fill="#000000" font-family="sans-serif" font-size="13" lengthAdjust="spacing" textLength="8" x="688.0803" y="166.5663">1</text><text fill="#000000" font-family="sans-serif" font-size="13" lengthAdjust="spacing" textLength="7" x="565.6964" y="282.732">*</text><!--MD5=[acda98ef2513d819683ba761a9c77b11]
link Company to Warehouse--><path codeLine="79" d="M728.9281,146.7361 C736.5631,181.1701 751.0881,246.6751 761.5401,293.8121 " fill="none" id="Company-Warehouse" style="stroke:#A80036;stroke-width:1.0;"/><polygon fill="#000000" points="760.8485,260.401,761.7597,250.9342,756.0212,252.2066,760.8485,260.401" style="stroke:#000000;stroke-width:1.0;"/><text fill="#000000" font-family="sans-serif" font-size="13" lengthAdjust="spacing" textLength="23" x="768.7661" y="260.02">has</text><text fill="#000000" font-family="sans-serif" font-size="13" lengthAdjust="spacing" textLength="8" x="721.2113" y="166.5663">1</text><text fill="#000000" font-family="sans-serif" font-size="13" lengthAdjust="spacing" textLength="7" x="752.5252" y="282.732">*</text><!--MD5=[fa82a3f945f47fef7f5178ebed81cb5d]
link Port to Cargo_Manifest--><path codeLine="80" d="M515.5721,406.0121 C517.6291,422.1151 522.0351,439.0971 530.7661,452.9531 C541.6881,470.2861 558.4711,484.4271 575.5311,495.4431 " fill="none" id="Port-Cargo_Manifest" style="stroke:#A80036;stroke-width:1.0;"/><polygon fill="#000000" points="538.5505,448.6725,535.9546,439.5231,531.0724,442.7963,538.5505,448.6725" style="stroke:#000000;stroke-width:1.0;"/><text fill="#000000" font-family="sans-serif" font-size="13" lengthAdjust="spacing" textLength="66" x="544.7661" y="449.02">receives a</text><text fill="#000000" font-family="sans-serif" font-size="13" lengthAdjust="spacing" textLength="8" x="507.0347" y="426.2295">1</text><text fill="#000000" font-family="sans-serif" font-size="13" lengthAdjust="spacing" textLength="7" x="560.9305" y="488.0989">*</text><!--MD5=[7a51b159350d50d2962e5a3e89520440]
link Warehouse to Cargo_Manifest--><path codeLine="81" d="M759.1341,406.0531 C753.2181,422.1581 745.2471,439.1301 734.7661,452.9531 C725.1361,465.6541 712.6751,477.1601 699.9121,487.0601 " fill="none" id="Warehouse-Cargo_Manifest" style="stroke:#A80036;stroke-width:1.0;"/><polygon fill="#000000" points="746.8152,448.5559,754.5259,442.9885,749.7809,439.5196,746.8152,448.5559" style="stroke:#000000;stroke-width:1.0;"/><text fill="#000000" font-family="sans-serif" font-size="13" lengthAdjust="spacing" textLength="66" x="758.7661" y="449.02">receives a</text><text fill="#000000" font-family="sans-serif" font-size="13" lengthAdjust="spacing" textLength="8" x="748.8633" y="425.8779">1</text><text fill="#000000" font-family="sans-serif" font-size="13" lengthAdjust="spacing" textLength="7" x="707.9127" y="478.4557">*</text><!--MD5=[56127ccb70193a52dc3f681a8e3969fb]
link Cargo_Manifest to Container--><path codeLine="82" d="M575.7141,553.2801 C563.4681,558.4761 550.7121,563.8871 538.7661,568.9531 C439.0211,611.2561 322.9041,660.4831 254.8601,689.3273 " fill="none" id="Cargo_Manifest-Container" style="stroke:#A80036;stroke-width:1.0;"/><polygon fill="#000000" points="465.1628,609.4714,474.6375,608.6462,472.343,603.2347,465.1628,609.4714" style="stroke:#000000;stroke-width:1.0;"/><text fill="#000000" font-family="sans-serif" font-size="13" lengthAdjust="spacing" textLength="142" x="478.7661" y="612.02">has information about</text><text fill="#000000" font-family="sans-serif" font-size="13" lengthAdjust="spacing" textLength="7" x="560.7249" y="552.7463">*</text><text fill="#000000" font-family="sans-serif" font-size="13" lengthAdjust="spacing" textLength="7" x="262.7518" y="682.1818">*</text><!--MD5=[ba54223a31981c52d18c1dd571f5520c]
link Ship to Container--><path codeLine="83" d="M234.5311,153.3611 C176.8621,180.5251 101.8166,226.7011 66.766,293.9531 C6,410.5461 85.8618,560.3861 144.6187,645.9471 " fill="none" id="Ship-Container" style="stroke:#A80036;stroke-width:1.0;"/><polygon fill="#000000" points="57.8682,449.4383,62.3835,441.0679,56.6012,440.0125,57.8682,449.4383" style="stroke:#000000;stroke-width:1.0;"/><text fill="#000000" font-family="sans-serif" font-size="13" lengthAdjust="spacing" textLength="32" x="67.766" y="449.02">have</text><text fill="#000000" font-family="sans-serif" font-size="13" lengthAdjust="spacing" textLength="8" x="218.8837" y="152.6725">1</text><text fill="#000000" font-family="sans-serif" font-size="13" lengthAdjust="spacing" textLength="7" x="131.5323" y="634.6735">*</text><!--MD5=[c3f9abbbd000055c8594dc45c5c213b3]
link Ship to Cargo_Manifest--><path codeLine="84" d="M387.0581,151.4871 C449.6941,178.4561 535.7831,225.3191 584.7661,293.9531 C625.1611,350.5541 635.3201,433.0951 637.5591,482.6601 " fill="none" id="Ship-Cargo_Manifest" style="stroke:#A80036;stroke-width:1.0;"/><polygon fill="#000000" points="636.7824,354.0072,633.6698,345.0205,628.9819,348.5664,636.7824,354.0072" style="stroke:#000000;stroke-width:1.0;"/><text fill="#000000" font-family="sans-serif" font-size="13" lengthAdjust="spacing" textLength="32" x="642.7661" y="354.52">have</text><text fill="#000000" font-family="sans-serif" font-size="13" lengthAdjust="spacing" textLength="8" x="394.7109" y="150.6199">1</text><text fill="#000000" font-family="sans-serif" font-size="13" lengthAdjust="spacing" textLength="7" x="629.9915" y="471.9278">*</text><!--MD5=[e286db40d4dc071fc67b9ff133e9b52b]
link Ship to Port--><path codeLine="85" d="M386.8091,207.1001 C413.1311,236.0541 441.9511,267.7571 465.6581,293.8341 " fill="none" id="Ship-Port" style="stroke:#A80036;stroke-width:1.0;"/><polygon fill="#000000" points="439.4027,251.8198,443.3125,260.4896,447.6617,256.5357,439.4027,251.8198" style="stroke:#000000;stroke-width:1.0;"/><text fill="#000000" font-family="sans-serif" font-size="13" lengthAdjust="spacing" textLength="37" x="451.7661" y="260.02">docks</text><text fill="#000000" font-family="sans-serif" font-size="13" lengthAdjust="spacing" textLength="7" x="395.012" y="212.1373">*</text><text fill="#000000" font-family="sans-serif" font-size="13" lengthAdjust="spacing" textLength="7" x="451.7896" y="282.7568">*</text><!--MD5=[668bfb6c3cf503ab645d5414a0ff2b4e]
link Truck to Warehouse--><path codeLine="86" d="M881.3001,153.3981 C861.6671,189.1001 828.4601,249.4891 804.1311,293.7331 " fill="none" id="Truck-Warehouse" style="stroke:#A80036;stroke-width:1.0;"/><polygon fill="#000000" points="836.1753,251.1383,829.2417,257.648,834.3922,260.4802,836.1753,251.1383" style="stroke:#000000;stroke-width:1.0;"/><text fill="#000000" font-family="sans-serif" font-size="13" lengthAdjust="spacing" textLength="54" x="842.7661" y="260.02">receives</text><text fill="#000000" font-family="sans-serif" font-size="13" lengthAdjust="spacing" textLength="7" x="870.4941" y="172.8249">*</text><text fill="#000000" font-family="sans-serif" font-size="13" lengthAdjust="spacing" textLength="7" x="800.4053" y="283.0408">*</text><!--MD5=[6f30cc5d122f8039bb2f6b40f6be2363]
link Truck to Cargo_Manifest--><path codeLine="87" d="M900.2281,153.1221 C902.1731,178.1231 904.7271,214.8481 905.7661,246.9531 C908.9021,343.8891 902.7541,384.7841 833.7661,452.9531 C797.6661,488.6251 742.4321,506.8141 699.7881,515.9731 " fill="none" id="Truck-Cargo_Manifest" style="stroke:#A80036;stroke-width:1.0;"/><polygon fill="#000000" points="909.3484,354.3962,916.2946,347.8998,911.1495,345.0577,909.3484,354.3962" style="stroke:#000000;stroke-width:1.0;"/><text fill="#000000" font-family="sans-serif" font-size="13" lengthAdjust="spacing" textLength="32" x="920.7661" y="354.52">have</text><text fill="#000000" font-family="sans-serif" font-size="13" lengthAdjust="spacing" textLength="8" x="891.9253" y="172.7358">1</text><text fill="#000000" font-family="sans-serif" font-size="13" lengthAdjust="spacing" textLength="7" x="707.7736" y="510.8925">*</text><!--MD5=[9526f499cdb1aa8773d66684248da363]
link Port to Employee--><path codeLine="88" d="M467.2991,406.2071 C461.3421,415.6001 456.1641,425.6621 452.7661,435.9531 C447.1121,453.0771 450.9301,472.4251 456.9611,488.6961 " fill="none" id="Port-Employee" style="stroke:#A80036;stroke-width:1.0;"/><polygon fill="#000000" points="457.1443,449.4807,461.1852,440.8713,455.353,440.1404,457.1443,449.4807" style="stroke:#000000;stroke-width:1.0;"/><text fill="#000000" font-family="sans-serif" font-size="13" lengthAdjust="spacing" textLength="23" x="466.7661" y="449.02">has</text><text fill="#000000" font-family="sans-serif" font-size="13" lengthAdjust="spacing" textLength="8" x="452.9047" y="426.0507">1</text><text fill="#000000" font-family="sans-serif" font-size="13" lengthAdjust="spacing" textLength="7" x="445.988" y="477.8373">*</text><!--MD5=[6d87139c19e5629643618c9713db95d3]
link Warehouse to Employee--><path codeLine="89" d="M722.0401,386.3511 C712.3411,392.9101 702.2651,399.6711 692.7661,405.9531 C660.5791,427.2371 653.4171,434.0701 619.7661,452.9531 C593.0701,467.9331 585.1681,469.3081 557.7661,482.9531 C546.1681,488.7281 533.7011,495.0531 522.0741,501.0021 " fill="none" id="Warehouse-Employee" style="stroke:#A80036;stroke-width:1.0;"/><polygon fill="#000000" points="649.4285,447.0065,658.7371,445.0571,655.8135,439.9579,649.4285,447.0065" style="stroke:#000000;stroke-width:1.0;"/><text fill="#000000" font-family="sans-serif" font-size="13" lengthAdjust="spacing" textLength="23" x="662.7661" y="449.02">has</text><text fill="#000000" font-family="sans-serif" font-size="13" lengthAdjust="spacing" textLength="8" x="706.2036" y="387.4895">1</text><text fill="#000000" font-family="sans-serif" font-size="13" lengthAdjust="spacing" textLength="7" x="529.701" y="493.14">*</text><!--MD5=[04cb40d8f5d6ceed79864e03c6debadc]
reverse link Ship to ShipIMO--><path codeLine="90" d="M221.6641,231.4771 C192.4181,266.9341 162.6571,303.0151 143.9775,325.6621 " fill="none" id="Ship-backto-ShipIMO" style="stroke:#A80036;stroke-width:1.0;"/><polygon fill="none" points="216.4501,226.7981,234.5761,215.8231,227.2501,235.7061,216.4501,226.7981" style="stroke:#A80036;stroke-width:1.0;"/><text fill="#000000" font-family="sans-serif" font-size="13" lengthAdjust="spacing" textLength="8" x="218.6824" y="221.3567">1</text><text fill="#000000" font-family="sans-serif" font-size="13" lengthAdjust="spacing" textLength="8" x="139.6853" y="314.9961">1</text><!--MD5=[f25951ff5d6ad98ed1ac2036c44703d4]
reverse link Ship to ShipCallSign--><path codeLine="91" d="M343.8131,236.3621 C353.6961,270.1291 363.5731,303.8771 369.8991,325.4921 " fill="none" id="Ship-backto-ShipCallSign" style="stroke:#A80036;stroke-width:1.0;"/><polygon fill="none" points="337.0821,238.2871,338.1821,217.1261,350.5191,234.3551,337.0821,238.2871" style="stroke:#A80036;stroke-width:1.0;"/><text fill="#000000" font-family="sans-serif" font-size="13" lengthAdjust="spacing" textLength="8" x="331.9749" y="237.0264">1</text><text fill="#000000" font-family="sans-serif" font-size="13" lengthAdjust="spacing" textLength="8" x="359.2503" y="314.7847">1</text><!--MD5=[3c652507219b8b107afba7fa20522db3]
reverse link Ship to ShipMMSI--><path codeLine="92" d="M277.7191,236.3621 C267.8361,270.1291 257.9591,303.8771 251.6331,325.4921 " fill="none" id="Ship-backto-ShipMMSI" style="stroke:#A80036;stroke-width:1.0;"/><polygon fill="none" points="271.0131,234.3551,283.3491,217.1261,284.4491,238.2871,271.0131,234.3551" style="stroke:#A80036;stroke-width:1.0;"/><text fill="#000000" font-family="sans-serif" font-size="13" lengthAdjust="spacing" textLength="8" x="272.9437" y="237.0264">1</text><text fill="#000000" font-family="sans-serif" font-size="13" lengthAdjust="spacing" textLength="8" x="244.3319" y="314.7847">1</text><!--MD5=[f1aea42aa3d587c63d9c9798c57a0778]
@startuml
title Relationships - Class Diagram

class Company

class Container {
int id;
float payload;
float tare;
float gross;
string iso_code;
int refrigerated;
float temperature;
}

class Cargo_Manifest {
int id;
float gross_weight;
int pos_container;
}

class Ship {
int MMSI;
string name;
int id_ship;
int number_energy_gen;
fload gen_power_output;
int callsign;
int ship_type;
float length;
float width;
float capacity;
float draft;
}

class ShipCallSign {

}

class ShipIMO {}

class ShipMMSI {}

class ShipData {
LocalDateTime dateTime;
double latitude;
double longitude;
double sog;
double cog;
double heading;
char transceiverClass;
}

class Truck {
int registration_plate;
}

class Port {
int id;
string name;
string continent;
string country;
string location;
}

class Warehouse {
int id;
string name;
string continent;
string country;
string location;
}

class Employee {
int id;
string name;
}

Company "1" - - "*" Port: has >
Company "1" - - "*" Warehouse: has >
Port "1" - - "*" Cargo_Manifest: receives a >
Warehouse "1" - - "*" Cargo_Manifest: receives a >
Cargo_Manifest "*" - - "*" Container: has information about >
Ship "1" - - "*" Container: have >
Ship "1" - - "*" Cargo_Manifest: have >
Ship "*" - - "*" Port: docks <
Truck "*" - - "*" Warehouse: receives <
Truck "1" - - "*" Cargo_Manifest: have >
Port "1" - - "*" Employee: has >
Warehouse "1" - - "*" Employee: has >
Ship "1" <|- - "1" ShipIMO
Ship "1" <|- - "1" ShipCallSign
Ship "1" <|- - "1" ShipMMSI
@enduml

PlantUML version 1.2021.14beta6(Unknown compile time)
(GPL source distribution)
Java Runtime: Java(TM) SE Runtime Environment
JVM: Java HotSpot(TM) 64-Bit Server VM
Default Encoding: UTF-8
Language: en
Country: US
--></g></svg>